mtllib materials.mtl
v 0.03815208 -0.1756022 0.2020496
v -0.09328188 -0.1756022 0.2020496
v -0.09328192 -0.03805506 0.2020496
v 0.03815208 -0.03805506 0.2020497
v 0.03815216 -0.1756021 -0.2381014
v 0.03815214 -0.03805494 -0.2381014
v -0.09328189 -0.03805494 -0.2381014
v -0.09328184 -0.1756022 -0.2381014
v 0.03815208 -0.1756022 0.2020496
v 0.03815216 -0.1756021 -0.2381014
v -0.09328184 -0.1756022 -0.2381014
v -0.09328188 -0.1756022 0.2020496
v 0.03815208 -0.03805506 0.2020497
v -0.09328192 -0.03805506 0.2020496
v -0.09328189 -0.03805494 -0.2381014
v 0.03815214 -0.03805494 -0.2381014
v 0.03815208 -0.1756022 0.2020496
v 0.03815208 -0.03805506 0.2020497
v 0.03815214 -0.03805494 -0.2381014
v 0.03815216 -0.1756021 -0.2381014
v -0.09328188 -0.1756022 0.2020496
v -0.09328184 -0.1756022 -0.2381014
v -0.09328189 -0.03805494 -0.2381014
v -0.09328192 -0.03805506 0.2020496
v 0.02898227 -0.0380547 0.1867666
v -0.08411217 -0.0380547 0.1867666
v -0.08624159 0.2526138 0.1864534
v 0.02898233 -0.03805459 -0.2258753
v -0.08411221 0.254884 -0.2258756
v -0.0841122 0.2205333 -0.2258756
v -0.08411218 0.1688954 -0.2258756
v -0.08411212 -0.03805459 -0.2258754
v 0.02898227 -0.0380547 0.1867666
v 0.02898233 -0.03805459 -0.1681982
v 0.02898234 -0.03805459 -0.1744037
v 0.02898233 -0.03805459 -0.2258753
v -0.08411212 -0.03805459 -0.2258754
v -0.08411217 -0.0380547 0.1867666
v -0.08660272 0.301909 0.1864003
v -0.08411226 0.3379076 0.08668262
v 0.02898224 0.3379076 0.06579697
v 0.02898227 -0.0380547 0.1867666
v 0.02898227 0.2410662 0.09695667
v 0.02898228 0.2716074 -0.1037267
v 0.02898233 0.0644871 -0.1464493
v 0.02898233 -0.03805459 -0.1681982
v -0.08411217 -0.0380547 0.1867666
v -0.08411212 -0.03805459 -0.2258754
v -0.08411218 0.1688954 -0.2258756
v -0.08411221 0.2266507 -0.1790169
v -0.08411226 0.2747624 0.1034923
v 0.02898227 0.3379076 -0.09005094
v 0.02161813 0.2868443 -0.1505798
v 0.02265395 0.2555687 -0.1499989
v 0.02898228 0.2716074 -0.1037267
v 0.02898233 -0.03805459 -0.2258753
v 0.02898234 -0.03805459 -0.1744037
v 0.0289823 0.2584357 -0.1935297
v 0.02898228 0.3379076 -0.198656
v 0.0289823 0.2584357 -0.1935297
v 0.0289823 0.2621558 -0.1841922
v -0.08411223 0.3379076 -0.0887506
v 0.02161813 0.2868443 -0.1505798
v 0.02898227 0.3379076 -0.09005094
v -0.09147645 0.2868443 -0.1461669
v -0.08411223 0.3379076 -0.194159
v 0.02898228 0.3379076 -0.198656
v 0.02161813 0.2868443 -0.1505798
v -0.08411223 0.3379076 -0.194159
v -0.08705065 0.319757 -0.2246873
v 0.02898228 0.3379076 -0.198656
v -0.08411218 0.1688954 -0.2258756
v -0.0841122 0.2205333 -0.2258756
v -0.08639346 0.2410748 -0.2011838
v -0.08791905 0.2298676 -0.1846712
v -0.0841122 0.2205333 -0.2258756
v -0.08411221 0.254884 -0.2258756
v -0.08411221 0.249645 -0.2180091
v -0.08411221 0.254884 -0.2258756
v -0.08705065 0.319757 -0.2246873
v -0.08411223 0.3379076 -0.194159
v -0.08411223 0.3379076 -0.0887506
v -0.09147645 0.2868443 -0.1461669
v 0.02161813 0.2868443 -0.1505798
v -0.08411218 0.1688954 -0.2258756
v -0.08791905 0.2298676 -0.1846712
v -0.08411221 0.2266507 -0.1790169
v -0.08411223 0.3379076 -0.194159
v -0.09147645 0.2868443 -0.1461669
v -0.08639346 0.2410748 -0.2011838
v -0.08411221 0.249645 -0.2180091
v 0.02898233 0.0644871 -0.1464493
v 0.02265395 0.2555687 -0.1499989
v 0.0289823 0.2621558 -0.1841922
v 0.02898233 -0.03805459 -0.2258753
v 0.0266021 0.2517836 -0.2249131
v -0.08411221 0.254884 -0.2258756
v 0.02898228 0.3379076 -0.198656
v 0.02604385 0.319757 -0.2246872
v 0.02659945 0.2521031 -0.224912
v -0.08705065 0.319757 -0.2246873
v 0.02604385 0.319757 -0.2246872
v 0.02898228 0.3379076 -0.198656
v -0.08411226 0.3379076 0.08668262
v -0.08411223 0.3379076 -0.0887506
v 0.02898227 0.3379076 -0.09005094
v 0.02898224 0.3379076 0.06579697
v 0.02898224 0.3379076 0.06579697
v 0.02649175 0.301909 0.1864003
v -0.08660272 0.301909 0.1864003
v 0.02898227 -0.0380547 0.1867666
v 0.02649605 0.2652068 0.1875364
v 0.02898227 0.2410662 0.09695667
v -0.08411226 0.3379076 0.08668262
v -0.08660272 0.301909 0.1864003
v -0.08624159 0.2526138 0.1864534
v -0.08411226 0.2747624 0.1034923
v 0.02649175 0.301909 0.1864003
v 0.02898224 0.3379076 0.06579697
v 0.02898227 0.2410662 0.09695667
v 0.02898227 0.2410662 0.09695667
v 0.02898224 0.3379076 0.06579697
v 0.02898227 0.3379076 -0.09005094
v 0.02898228 0.2716074 -0.1037267
v 0.02265395 0.2555687 -0.1499989
v 0.02898233 0.0644871 -0.1464493
v 0.02898228 0.2716074 -0.1037267
v 0.02265395 0.2555687 -0.1499989
v 0.02161813 0.2868443 -0.1505798
v 0.02898228 0.3379076 -0.198656
v 0.0289823 0.2621558 -0.1841922
v 0.02898234 -0.03805459 -0.1744037
v 0.02898233 -0.03805459 -0.1681982
v 0.02898233 0.0644871 -0.1464493
v 0.0289823 0.2621558 -0.1841922
v 0.02659945 0.2521031 -0.224912
v 0.0266021 0.2517836 -0.2249131
v 0.02898233 -0.03805459 -0.2258753
v 0.0289823 0.2584357 -0.1935297
v 0.02659945 0.2521031 -0.224912
v 0.0289823 0.2584357 -0.1935297
v 0.02898228 0.3379076 -0.198656
v 0.0289823 0.2621558 -0.1841922
v 0.0289823 0.2584357 -0.1935297
v 0.02898234 -0.03805459 -0.1744037
v 0.0266021 0.2517836 -0.2249131
v 0.02659945 0.2521031 -0.224912
v 0.02604385 0.319757 -0.2246872
v -0.08705065 0.319757 -0.2246873
v -0.08411221 0.254884 -0.2258756
v -0.08639346 0.2410748 -0.2011838
v -0.09147645 0.2868443 -0.1461669
v -0.08791905 0.2298676 -0.1846712
v -0.08639346 0.2410748 -0.2011838
v -0.0841122 0.2205333 -0.2258756
v -0.08411221 0.249645 -0.2180091
v -0.08411221 0.254884 -0.2258756
v -0.08411223 0.3379076 -0.194159
v -0.08411221 0.249645 -0.2180091
v -0.08791905 0.2298676 -0.1846712
v -0.09147645 0.2868443 -0.1461669
v -0.08411223 0.3379076 -0.0887506
v -0.08411221 0.2266507 -0.1790169
v -0.08411221 0.2266507 -0.1790169
v -0.08411223 0.3379076 -0.0887506
v -0.08411226 0.3379076 0.08668262
v -0.08411226 0.2747624 0.1034923
v -0.08624159 0.2526138 0.1864534
v -0.08411217 -0.0380547 0.1867666
v -0.08411226 0.2747624 0.1034923
v -0.08624159 0.2526138 0.1864534
v -0.08660272 0.301909 0.1864003
v 0.02649175 0.301909 0.1864003
v 0.02649605 0.2652068 0.1875364
v 0.02898227 -0.0380547 0.1867666
v -0.08624159 0.2526138 0.1864534
v 0.02649605 0.2652068 0.1875364
v 0.02898227 0.2410662 0.09695667
v 0.02649605 0.2652068 0.1875364
v 0.02649175 0.301909 0.1864003
v 0.03815211 -0.2367338 0.2020495
v -0.09328187 -0.2367338 0.2020495
v -0.09328187 -0.1756017 0.2020495
v 0.03815208 -0.1756017 0.2020495
v 0.0381522 -0.2367338 -0.2381015
v 0.03815217 -0.1756017 -0.2381015
v -0.09328184 -0.1756017 -0.2381015
v -0.09328182 -0.2367338 -0.2381017
v 0.03815211 -0.2367338 0.2020495
v 0.0381522 -0.2367338 -0.2381015
v 0.02566601 -0.3100923 -0.1962872
v 0.02566594 -0.3100923 0.1602352
v 0.03815208 -0.1756017 0.2020495
v -0.09328187 -0.1756017 0.2020495
v -0.09328184 -0.1756017 -0.2381015
v 0.03815217 -0.1756017 -0.2381015
v 0.03815211 -0.2367338 0.2020495
v 0.03815208 -0.1756017 0.2020495
v 0.03815217 -0.1756017 -0.2381015
v 0.0381522 -0.2367338 -0.2381015
v -0.09328187 -0.2367338 0.2020495
v -0.09328182 -0.2367338 -0.2381017
v -0.09328184 -0.1756017 -0.2381015
v -0.09328187 -0.1756017 0.2020495
v 0.0381522 -0.2367338 -0.2381015
v -0.09328182 -0.2367338 -0.2381017
v -0.08079559 -0.3100923 -0.1962875
v 0.02566601 -0.3100923 -0.1962872
v -0.09328182 -0.2367338 -0.2381017
v -0.09328187 -0.2367338 0.2020495
v -0.08079559 -0.3100923 0.1602351
v -0.08079559 -0.3100923 -0.1962875
v -0.09328187 -0.2367338 0.2020495
v 0.03815211 -0.2367338 0.2020495
v 0.02566594 -0.3100923 0.1602352
v -0.08079559 -0.3100923 0.1602351
v 0.02566594 -0.3100923 0.1602352
v 0.02566601 -0.3100923 -0.1962872
v -0.08079559 -0.3100923 -0.1962875
v -0.08079559 -0.3100923 0.1602351
v -0.07952707 -0.3100923 0.03393608
v 0.02439745 -0.3100923 0.03393608
v 0.02902213 -0.4996016 0.03856075
v -0.08415167 -0.4996016 0.03856075
v -0.07952707 -0.3100923 0.03393608
v -0.07952707 -0.3100923 -0.06998843
v 0.02439745 -0.3100923 -0.06998843
v 0.02439745 -0.3100923 0.03393608
v 0.02439745 -0.3100923 0.03393608
v 0.02439745 -0.3100923 -0.06998843
v 0.02902213 -0.4996016 -0.07461309
v 0.02902213 -0.4996016 0.03856075
v 0.02439745 -0.3100923 -0.06998843
v -0.07952707 -0.3100923 -0.06998843
v -0.08415172 -0.4996016 -0.07461309
v 0.02902213 -0.4996016 -0.07461309
v -0.07952707 -0.3100923 -0.06998843
v -0.07952707 -0.3100923 0.03393608
v -0.08415167 -0.4996016 0.03856075
v -0.08415172 -0.4996016 -0.07461309
v -0.08415167 -0.4996016 0.03856075
v 0.02902213 -0.4996016 0.03856075
v 0.02902213 -0.658545 0.03856069
v -0.08415166 -0.658545 0.03856075
v 0.02902213 -0.4996016 0.03856075
v 0.02902213 -0.4996016 -0.07461309
v 0.02902213 -0.658545 -0.07461309
v 0.02902213 -0.658545 0.03856069
v 0.02902213 -0.4996016 -0.07461309
v -0.08415172 -0.4996016 -0.07461309
v -0.08415166 -0.658545 -0.07461309
v 0.02902213 -0.658545 -0.07461309
v -0.08415172 -0.4996016 -0.07461309
v -0.08415167 -0.4996016 0.03856075
v -0.08415166 -0.658545 0.03856075
v -0.08415166 -0.658545 -0.07461309
v -0.08415166 -0.658545 0.03856075
v 0.02902213 -0.658545 0.03856069
v 0.008823127 -0.9000169 0.01836163
v -0.06395254 -0.9000169 0.01836169
v 0.02902213 -0.658545 0.03856069
v 0.02902213 -0.658545 -0.07461309
v 0.008823127 -0.9000169 -0.05441403
v 0.008823127 -0.9000169 0.01836163
v 0.02902213 -0.658545 -0.07461309
v -0.08415166 -0.658545 -0.07461309
v -0.06395254 -0.9000169 -0.05441403
v 0.008823127 -0.9000169 -0.05441403
v -0.08415166 -0.658545 -0.07461309
v -0.08415166 -0.658545 0.03856075
v -0.06395254 -0.9000169 0.01836169
v -0.06395254 -0.9000169 -0.05441403
v -0.06395254 -0.9000169 0.01836169
v 0.008823127 -0.9000169 0.01836163
v 0.008823127 -0.9000169 -0.05441403
v -0.06395254 -0.9000169 -0.05441403
v 0.001472861 0.04447317 0.0125404
v 0.001472861 0.3379071 0.0125404
v 0.0289823 0.3379071 0.01254034
v 0.0320389 0.04447317 0.0125404
v 0.001472861 0.04447317 -0.0180257
v 0.0320389 0.04447317 -0.0180257
v 0.0289823 0.3379071 -0.0180257
v 0.001472861 0.3379071 -0.0180257
v 0.001472861 0.04447317 0.0125404
v 0.001472861 0.04447317 -0.0180257
v 0.001472861 0.3379071 -0.0180257
v 0.001472861 0.3379071 0.0125404
v 0.0320389 0.04447317 0.0125404
v 0.0289823 0.3379071 0.01254034
v 0.0289823 0.3379071 -0.0180257
v 0.0320389 0.04447317 -0.0180257
v 0.001472861 0.04447317 0.0125404
v 0.0320389 0.04447317 0.0125404
v 0.0320389 0.04447317 -0.0180257
v 0.001472861 0.04447317 -0.0180257
v 0.001472861 0.3379071 0.0125404
v 0.001472861 0.3379071 -0.0180257
v 0.0289823 0.3379071 -0.0180257
v 0.0289823 0.3379071 0.01254034
v 0.001472861 0.08115244 -0.03789371
v 0.001472861 0.3379071 -0.03789377
v 0.0320389 0.3379071 -0.03789377
v 0.0320389 0.08115244 -0.03789371
v 0.001472861 0.08115244 -0.06845981
v 0.0320389 0.08115244 -0.06845981
v 0.0320389 0.3379071 -0.06845975
v 0.001472861 0.3379071 -0.06845975
v 0.001472861 0.08115244 -0.03789371
v 0.001472861 0.08115244 -0.06845981
v 0.001472861 0.3379071 -0.06845975
v 0.001472861 0.3379071 -0.03789377
v 0.0320389 0.08115244 -0.03789371
v 0.0320389 0.3379071 -0.03789377
v 0.0320389 0.3379071 -0.06845975
v 0.0320389 0.08115244 -0.06845981
v 0.001472861 0.08115244 -0.03789371
v 0.0320389 0.08115244 -0.03789371
v 0.0320389 0.08115244 -0.06845981
v 0.001472861 0.08115244 -0.06845981
v 0.001472861 0.3379071 -0.03789377
v 0.001472861 0.3379071 -0.06845975
v 0.0320389 0.3379071 -0.06845975
v 0.0320389 0.3379071 -0.03789377
v 0.001472861 0.08420944 0.1088232
v 0.001472861 0.325681 0.1088232
v 0.0320389 0.325681 0.1088232
v 0.0320389 0.08420944 0.1088232
v 0.001472861 0.08420944 0.07825714
v 0.0320389 0.08420944 0.07825714
v 0.001472861 0.3348508 0.07978547
v 0.001472861 0.08420944 0.1088232
v 0.001472861 0.08420944 0.07825714
v 0.001472861 0.3348508 0.07978547
v 0.001472861 0.325681 0.1088232
v 0.0320389 0.08420944 0.1088232
v 0.0320389 0.325681 0.1088232
v 0.0320389 0.08420944 0.07825714
v 0.001472861 0.08420944 0.1088232
v 0.0320389 0.08420944 0.1088232
v 0.0320389 0.08420944 0.07825714
v 0.001472861 0.08420944 0.07825714
v 0.001472861 0.325681 0.1088232
v 0.001472861 0.3348508 0.07978547
v 0.0320389 0.325681 0.1088232
v 0.0320389 0.08420944 0.07825714
v 0.0289823 0.3379073 0.06579697
v 0.001472861 0.3348508 0.07978547
v 0.0320389 0.325681 0.1088232
v 0.0289823 0.3379073 0.06579697
v 0.0320389 0.08420944 0.07825714
v 0.001472861 0.3348508 0.07978547
v 0.0289823 0.3379073 0.06579697
v 0.0320389 0.325681 0.1088232
v 0.024049 0.07962453 0.07332379
v 0.01725879 0.08354485 0.07470632
v 0.01620835 0.07962453 0.07470632
v 0.024049 0.07962453 0.07332379
v 0.02012868 0.08641469 0.07470632
v 0.01725879 0.08354485 0.07470632
v 0.024049 0.07962453 0.07332379
v 0.024049 0.08746517 0.07470632
v 0.02012868 0.08641469 0.07470632
v 0.024049 0.07962453 0.07332379
v 0.02796933 0.08641469 0.07470632
v 0.024049 0.08746517 0.07470632
v 0.024049 0.07962453 0.07332379
v 0.0308392 0.08354485 0.07470632
v 0.02796933 0.08641469 0.07470632
v 0.024049 0.07962453 0.07332379
v 0.03188965 0.07962453 0.07470632
v 0.0308392 0.08354485 0.07470632
v 0.024049 0.07962453 0.07332379
v 0.0308392 0.07570422 0.07470632
v 0.03188965 0.07962453 0.07470632
v 0.024049 0.07962453 0.07332379
v 0.02796932 0.07283437 0.07470632
v 0.0308392 0.07570422 0.07470632
v 0.024049 0.07962453 0.07332379
v 0.024049 0.0717839 0.07470632
v 0.02796932 0.07283437 0.07470632
v 0.024049 0.07962453 0.07332379
v 0.02012868 0.07283437 0.07470632
v 0.024049 0.0717839 0.07470632
v 0.024049 0.07962453 0.07332379
v 0.01725879 0.07570422 0.07470632
v 0.02012868 0.07283437 0.07470632
v 0.024049 0.07962453 0.07332379
v 0.01620835 0.07962453 0.07470632
v 0.01725879 0.07570422 0.07470632
v 0.01620835 0.07962453 0.07470632
v 0.01725879 0.08354485 0.07470632
v 0.0112876 0.08699238 0.07868713
v 0.00931339 0.07962453 0.07868713
v 0.01725879 0.08354485 0.07470632
v 0.02012868 0.08641469 0.07470632
v 0.01668119 0.09238589 0.07868713
v 0.0112876 0.08699238 0.07868713
v 0.02012868 0.08641469 0.07470632
v 0.024049 0.08746517 0.07470632
v 0.024049 0.09436011 0.07868713
v 0.01668119 0.09238589 0.07868713
v 0.024049 0.08746517 0.07470632
v 0.02796933 0.08641469 0.07470632
v 0.0314168 0.09238589 0.07868713
v 0.024049 0.09436011 0.07868713
v 0.02796933 0.08641469 0.07470632
v 0.0308392 0.08354485 0.07470632
v 0.0368104 0.08699238 0.07868713
v 0.0314168 0.09238589 0.07868713
v 0.0308392 0.08354485 0.07470632
v 0.03188965 0.07962453 0.07470632
v 0.03878461 0.07962453 0.07868713
v 0.0368104 0.08699238 0.07868713
v 0.03188965 0.07962453 0.07470632
v 0.0308392 0.07570422 0.07470632
v 0.0368104 0.07225668 0.07868713
v 0.03878461 0.07962453 0.07868713
v 0.0308392 0.07570422 0.07470632
v 0.02796932 0.07283437 0.07470632
v 0.0314168 0.06686318 0.07868713
v 0.0368104 0.07225668 0.07868713
v 0.02796932 0.07283437 0.07470632
v 0.024049 0.0717839 0.07470632
v 0.024049 0.06488895 0.07868713
v 0.0314168 0.06686318 0.07868713
v 0.024049 0.0717839 0.07470632
v 0.02012868 0.07283437 0.07470632
v 0.01668119 0.06686318 0.07868713
v 0.024049 0.06488895 0.07868713
v 0.02012868 0.07283437 0.07470632
v 0.01725879 0.07570422 0.07470632
v 0.01128758 0.07225668 0.07868713
v 0.01668119 0.06686318 0.07868713
v 0.01725879 0.07570422 0.07470632
v 0.01620835 0.07962453 0.07470632
v 0.00931339 0.07962453 0.07868713
v 0.01128758 0.07225668 0.07868713
v 0.00931339 0.07962453 0.07868713
v 0.0112876 0.08699238 0.07868713
v 0.006855607 0.08955109 0.08478606
v 0.00419578 0.07962453 0.08478606
v 0.0112876 0.08699238 0.07868713
v 0.01668119 0.09238589 0.07868713
v 0.0141224 0.09681797 0.08478606
v 0.006855607 0.08955109 0.08478606
v 0.01668119 0.09238589 0.07868713
v 0.024049 0.09436011 0.07868713
v 0.024049 0.09947777 0.08478606
v 0.0141224 0.09681797 0.08478606
v 0.024049 0.09436011 0.07868713
v 0.0314168 0.09238589 0.07868713
v 0.03397562 0.09681797 0.08478606
v 0.024049 0.09947777 0.08478606
v 0.0314168 0.09238589 0.07868713
v 0.0368104 0.08699238 0.07868713
v 0.04124239 0.08955109 0.08478606
v 0.03397562 0.09681797 0.08478606
v 0.0368104 0.08699238 0.07868713
v 0.03878461 0.07962453 0.07868713
v 0.04390222 0.07962453 0.08478606
v 0.04124239 0.08955109 0.08478606
v 0.03878461 0.07962453 0.07868713
v 0.0368104 0.07225668 0.07868713
v 0.04124239 0.06969798 0.08478606
v 0.04390222 0.07962453 0.08478606
v 0.0368104 0.07225668 0.07868713
v 0.0314168 0.06686318 0.07868713
v 0.0339756 0.0624311 0.08478606
v 0.04124239 0.06969798 0.08478606
v 0.0314168 0.06686318 0.07868713
v 0.024049 0.06488895 0.07868713
v 0.024049 0.0597713 0.08478606
v 0.0339756 0.0624311 0.08478606
v 0.024049 0.06488895 0.07868713
v 0.01668119 0.06686318 0.07868713
v 0.0141224 0.0624311 0.08478606
v 0.024049 0.0597713 0.08478606
v 0.01668119 0.06686318 0.07868713
v 0.01128758 0.07225668 0.07868713
v 0.006855607 0.06969798 0.08478606
v 0.0141224 0.0624311 0.08478606
v 0.01128758 0.07225668 0.07868713
v 0.00931339 0.07962453 0.07868713
v 0.00419578 0.07962453 0.08478606
v 0.006855607 0.06969798 0.08478606
v 0.00419578 0.07962453 0.08478606
v 0.006855607 0.08955109 0.08478606
v 0.004497394 0.0909127 0.09226751
v 0.001472741 0.07962453 0.09226751
v 0.006855607 0.08955109 0.08478606
v 0.0141224 0.09681797 0.08478606
v 0.01276088 0.09917617 0.09226751
v 0.004497394 0.0909127 0.09226751
v 0.0141224 0.09681797 0.08478606
v 0.024049 0.09947777 0.08478606
v 0.024049 0.1022007 0.09226751
v 0.01276088 0.09917617 0.09226751
v 0.024049 0.09947777 0.08478606
v 0.03397562 0.09681797 0.08478606
v 0.03533714 0.09917617 0.09226751
v 0.024049 0.1022007 0.09226751
v 0.03397562 0.09681797 0.08478606
v 0.04124239 0.08955109 0.08478606
v 0.0436006 0.0909127 0.09226751
v 0.03533714 0.09917617 0.09226751
v 0.04124239 0.08955109 0.08478606
v 0.04390222 0.07962453 0.08478606
v 0.04662526 0.07962453 0.09226751
v 0.0436006 0.0909127 0.09226751
v 0.04390222 0.07962453 0.08478606
v 0.04124239 0.06969798 0.08478606
v 0.0436006 0.06833637 0.09226751
v 0.04662526 0.07962453 0.09226751
v 0.04124239 0.06969798 0.08478606
v 0.0339756 0.0624311 0.08478606
v 0.03533712 0.0600729 0.09226751
v 0.0436006 0.06833637 0.09226751
v 0.0339756 0.0624311 0.08478606
v 0.024049 0.0597713 0.08478606
v 0.024049 0.05704832 0.09226751
v 0.03533712 0.0600729 0.09226751
v 0.024049 0.0597713 0.08478606
v 0.0141224 0.0624311 0.08478606
v 0.01276088 0.0600729 0.09226751
v 0.024049 0.05704832 0.09226751
v 0.0141224 0.0624311 0.08478606
v 0.006855607 0.06969798 0.08478606
v 0.004497379 0.06833637 0.09226751
v 0.01276088 0.0600729 0.09226751
v 0.006855607 0.06969798 0.08478606
v 0.00419578 0.07962453 0.08478606
v 0.001472741 0.07962453 0.09226751
v 0.004497379 0.06833637 0.09226751
v 0.001472741 0.07962453 0.09226751
v 0.004497394 0.0909127 0.09226751
v 0.004497394 0.0909127 0.1002291
v 0.001472741 0.07962453 0.1002291
v 0.004497394 0.0909127 0.09226751
v 0.01276088 0.09917617 0.09226751
v 0.01276088 0.09917617 0.1002291
v 0.004497394 0.0909127 0.1002291
v 0.01276088 0.09917617 0.09226751
v 0.024049 0.1022007 0.09226751
v 0.024049 0.1022007 0.1002291
v 0.01276088 0.09917617 0.1002291
v 0.024049 0.1022007 0.09226751
v 0.03533714 0.09917617 0.09226751
v 0.03533714 0.09917617 0.1002291
v 0.024049 0.1022007 0.1002291
v 0.03533714 0.09917617 0.09226751
v 0.0436006 0.0909127 0.09226751
v 0.0436006 0.0909127 0.1002291
v 0.03533714 0.09917617 0.1002291
v 0.0436006 0.0909127 0.09226751
v 0.04662526 0.07962453 0.09226751
v 0.04662526 0.07962453 0.1002291
v 0.0436006 0.0909127 0.1002291
v 0.04662526 0.07962453 0.09226751
v 0.0436006 0.06833637 0.09226751
v 0.0436006 0.06833637 0.1002291
v 0.04662526 0.07962453 0.1002291
v 0.0436006 0.06833637 0.09226751
v 0.03533712 0.0600729 0.09226751
v 0.03533712 0.0600729 0.1002291
v 0.0436006 0.06833637 0.1002291
v 0.03533712 0.0600729 0.09226751
v 0.024049 0.05704832 0.09226751
v 0.024049 0.05704832 0.1002291
v 0.03533712 0.0600729 0.1002291
v 0.024049 0.05704832 0.09226751
v 0.01276088 0.0600729 0.09226751
v 0.01276088 0.0600729 0.1002291
v 0.024049 0.05704832 0.1002291
v 0.01276088 0.0600729 0.09226751
v 0.004497379 0.06833637 0.09226751
v 0.004497379 0.06833637 0.1002291
v 0.01276088 0.0600729 0.1002291
v 0.004497379 0.06833637 0.09226751
v 0.001472741 0.07962453 0.09226751
v 0.001472741 0.07962453 0.1002291
v 0.004497379 0.06833637 0.1002291
v 0.001472741 0.07962453 0.1002291
v 0.004497394 0.0909127 0.1002291
v 0.006855607 0.08955109 0.1077106
v 0.00419578 0.07962453 0.1077106
v 0.004497394 0.0909127 0.1002291
v 0.01276088 0.09917617 0.1002291
v 0.0141224 0.09681797 0.1077106
v 0.006855607 0.08955109 0.1077106
v 0.01276088 0.09917617 0.1002291
v 0.024049 0.1022007 0.1002291
v 0.024049 0.09947777 0.1077106
v 0.0141224 0.09681797 0.1077106
v 0.024049 0.1022007 0.1002291
v 0.03533714 0.09917617 0.1002291
v 0.03397562 0.09681797 0.1077106
v 0.024049 0.09947777 0.1077106
v 0.03533714 0.09917617 0.1002291
v 0.0436006 0.0909127 0.1002291
v 0.04124239 0.08955109 0.1077106
v 0.03397562 0.09681797 0.1077106
v 0.0436006 0.0909127 0.1002291
v 0.04662526 0.07962453 0.1002291
v 0.04390222 0.07962453 0.1077106
v 0.04124239 0.08955109 0.1077106
v 0.04662526 0.07962453 0.1002291
v 0.0436006 0.06833637 0.1002291
v 0.04124239 0.06969798 0.1077106
v 0.04390222 0.07962453 0.1077106
v 0.0436006 0.06833637 0.1002291
v 0.03533712 0.0600729 0.1002291
v 0.0339756 0.0624311 0.1077106
v 0.04124239 0.06969798 0.1077106
v 0.03533712 0.0600729 0.1002291
v 0.024049 0.05704832 0.1002291
v 0.024049 0.0597713 0.1077106
v 0.0339756 0.0624311 0.1077106
v 0.024049 0.05704832 0.1002291
v 0.01276088 0.0600729 0.1002291
v 0.0141224 0.0624311 0.1077106
v 0.024049 0.0597713 0.1077106
v 0.01276088 0.0600729 0.1002291
v 0.004497379 0.06833637 0.1002291
v 0.006855607 0.06969798 0.1077106
v 0.0141224 0.0624311 0.1077106
v 0.004497379 0.06833637 0.1002291
v 0.001472741 0.07962453 0.1002291
v 0.00419578 0.07962453 0.1077106
v 0.006855607 0.06969798 0.1077106
v 0.00419578 0.07962453 0.1077106
v 0.006855607 0.08955109 0.1077106
v 0.0112876 0.08699238 0.1138095
v 0.00931339 0.07962453 0.1138095
v 0.006855607 0.08955109 0.1077106
v 0.0141224 0.09681797 0.1077106
v 0.01668119 0.09238589 0.1138095
v 0.0112876 0.08699238 0.1138095
v 0.0141224 0.09681797 0.1077106
v 0.024049 0.09947777 0.1077106
v 0.024049 0.09436011 0.1138095
v 0.01668119 0.09238589 0.1138095
v 0.024049 0.09947777 0.1077106
v 0.03397562 0.09681797 0.1077106
v 0.0314168 0.09238589 0.1138095
v 0.024049 0.09436011 0.1138095
v 0.03397562 0.09681797 0.1077106
v 0.04124239 0.08955109 0.1077106
v 0.0368104 0.08699238 0.1138095
v 0.0314168 0.09238589 0.1138095
v 0.04124239 0.08955109 0.1077106
v 0.04390222 0.07962453 0.1077106
v 0.03878461 0.07962453 0.1138095
v 0.0368104 0.08699238 0.1138095
v 0.04390222 0.07962453 0.1077106
v 0.04124239 0.06969798 0.1077106
v 0.0368104 0.07225668 0.1138095
v 0.03878461 0.07962453 0.1138095
v 0.04124239 0.06969798 0.1077106
v 0.0339756 0.0624311 0.1077106
v 0.0314168 0.06686318 0.1138095
v 0.0368104 0.07225668 0.1138095
v 0.0339756 0.0624311 0.1077106
v 0.024049 0.0597713 0.1077106
v 0.024049 0.06488895 0.1138095
v 0.0314168 0.06686318 0.1138095
v 0.024049 0.0597713 0.1077106
v 0.0141224 0.0624311 0.1077106
v 0.01668119 0.06686318 0.1138095
v 0.024049 0.06488895 0.1138095
v 0.0141224 0.0624311 0.1077106
v 0.006855607 0.06969798 0.1077106
v 0.01128758 0.07225668 0.1138095
v 0.01668119 0.06686318 0.1138095
v 0.006855607 0.06969798 0.1077106
v 0.00419578 0.07962453 0.1077106
v 0.00931339 0.07962453 0.1138095
v 0.01128758 0.07225668 0.1138095
v 0.00931339 0.07962453 0.1138095
v 0.0112876 0.08699238 0.1138095
v 0.01725881 0.08354485 0.1177903
v 0.01620835 0.07962453 0.1177903
v 0.0112876 0.08699238 0.1138095
v 0.01668119 0.09238589 0.1138095
v 0.02012868 0.08641469 0.1177903
v 0.01725881 0.08354485 0.1177903
v 0.01668119 0.09238589 0.1138095
v 0.024049 0.09436011 0.1138095
v 0.024049 0.08746517 0.1177903
v 0.02012868 0.08641469 0.1177903
v 0.024049 0.09436011 0.1138095
v 0.0314168 0.09238589 0.1138095
v 0.02796932 0.08641469 0.1177903
v 0.024049 0.08746517 0.1177903
v 0.0314168 0.09238589 0.1138095
v 0.0368104 0.08699238 0.1138095
v 0.03083919 0.08354485 0.1177903
v 0.02796932 0.08641469 0.1177903
v 0.0368104 0.08699238 0.1138095
v 0.03878461 0.07962453 0.1138095
v 0.03188965 0.07962453 0.1177903
v 0.03083919 0.08354485 0.1177903
v 0.03878461 0.07962453 0.1138095
v 0.0368104 0.07225668 0.1138095
v 0.03083919 0.07570422 0.1177903
v 0.03188965 0.07962453 0.1177903
v 0.0368104 0.07225668 0.1138095
v 0.0314168 0.06686318 0.1138095
v 0.02796932 0.07283437 0.1177903
v 0.03083919 0.07570422 0.1177903
v 0.0314168 0.06686318 0.1138095
v 0.024049 0.06488895 0.1138095
v 0.024049 0.0717839 0.1177903
v 0.02796932 0.07283437 0.1177903
v 0.024049 0.06488895 0.1138095
v 0.01668119 0.06686318 0.1138095
v 0.02012868 0.07283437 0.1177903
v 0.024049 0.0717839 0.1177903
v 0.01668119 0.06686318 0.1138095
v 0.01128758 0.07225668 0.1138095
v 0.01725879 0.07570422 0.1177903
v 0.02012868 0.07283437 0.1177903
v 0.01128758 0.07225668 0.1138095
v 0.00931339 0.07962453 0.1138095
v 0.01620835 0.07962453 0.1177903
v 0.01725879 0.07570422 0.1177903
v 0.01620835 0.07962453 0.1177903
v 0.01725881 0.08354485 0.1177903
v 0.024049 0.07962453 0.1191729
v 0.01725881 0.08354485 0.1177903
v 0.02012868 0.08641469 0.1177903
v 0.024049 0.07962453 0.1191729
v 0.02012868 0.08641469 0.1177903
v 0.024049 0.08746517 0.1177903
v 0.024049 0.07962453 0.1191729
v 0.024049 0.08746517 0.1177903
v 0.02796932 0.08641469 0.1177903
v 0.024049 0.07962453 0.1191729
v 0.02796932 0.08641469 0.1177903
v 0.03083919 0.08354485 0.1177903
v 0.024049 0.07962453 0.1191729
v 0.03083919 0.08354485 0.1177903
v 0.03188965 0.07962453 0.1177903
v 0.024049 0.07962453 0.1191729
v 0.03188965 0.07962453 0.1177903
v 0.03083919 0.07570422 0.1177903
v 0.024049 0.07962453 0.1191729
v 0.03083919 0.07570422 0.1177903
v 0.02796932 0.07283437 0.1177903
v 0.024049 0.07962453 0.1191729
v 0.02796932 0.07283437 0.1177903
v 0.024049 0.0717839 0.1177903
v 0.024049 0.07962453 0.1191729
v 0.024049 0.0717839 0.1177903
v 0.02012868 0.07283437 0.1177903
v 0.024049 0.07962453 0.1191729
v 0.02012868 0.07283437 0.1177903
v 0.01725879 0.07570422 0.1177903
v 0.024049 0.07962453 0.1191729
v 0.01725879 0.07570422 0.1177903
v 0.01620835 0.07962453 0.1177903
v 0.024049 0.07962453 0.1191729
v 0.0446136 0.03377497 -0.001563072
v 0.04323108 0.03769529 -0.008353293
v 0.04323108 0.03377497 -0.009403706
v 0.0446136 0.03377497 -0.001563072
v 0.04323108 0.04056513 -0.005483389
v 0.04323108 0.03769529 -0.008353293
v 0.0446136 0.03377497 -0.001563072
v 0.04323108 0.04161561 -0.001563072
v 0.04323108 0.04056513 -0.005483389
v 0.0446136 0.03377497 -0.001563072
v 0.04323108 0.04056513 0.002357244
v 0.04323108 0.04161561 -0.001563072
v 0.0446136 0.03377497 -0.001563072
v 0.04323108 0.03769529 0.005227149
v 0.04323108 0.04056513 0.002357244
v 0.0446136 0.03377497 -0.001563072
v 0.04323108 0.03377497 0.006277561
v 0.04323108 0.03769529 0.005227149
v 0.0446136 0.03377497 -0.001563072
v 0.04323108 0.02985466 0.005227149
v 0.04323108 0.03377497 0.006277561
v 0.0446136 0.03377497 -0.001563072
v 0.04323108 0.02698481 0.002357244
v 0.04323108 0.02985466 0.005227149
v 0.0446136 0.03377497 -0.001563072
v 0.04323108 0.02593434 -0.001563072
v 0.04323108 0.02698481 0.002357244
v 0.0446136 0.03377497 -0.001563072
v 0.04323108 0.02698481 -0.005483389
v 0.04323108 0.02593434 -0.001563072
v 0.0446136 0.03377497 -0.001563072
v 0.04323108 0.02985466 -0.008353293
v 0.04323108 0.02698481 -0.005483389
v 0.0446136 0.03377497 -0.001563072
v 0.04323108 0.03377497 -0.009403706
v 0.04323108 0.02985466 -0.008353293
v 0.04323108 0.03377497 -0.009403706
v 0.04323108 0.03769529 -0.008353293
v 0.03925027 0.04114282 -0.01432449
v 0.03925027 0.03377497 -0.01629865
v 0.04323108 0.03769529 -0.008353293
v 0.04323108 0.04056513 -0.005483389
v 0.03925027 0.04653633 -0.008930862
v 0.03925027 0.04114282 -0.01432449
v 0.04323108 0.04056513 -0.005483389
v 0.04323108 0.04161561 -0.001563072
v 0.03925027 0.04851055 -0.001563072
v 0.03925027 0.04653633 -0.008930862
v 0.04323108 0.04161561 -0.001563072
v 0.04323108 0.04056513 0.002357244
v 0.03925027 0.04653633 0.005804718
v 0.03925027 0.04851055 -0.001563072
v 0.04323108 0.04056513 0.002357244
v 0.04323108 0.03769529 0.005227149
v 0.03925027 0.04114282 0.01119834
v 0.03925027 0.04653633 0.005804718
v 0.04323108 0.03769529 0.005227149
v 0.04323108 0.03377497 0.006277561
v 0.03925027 0.03377497 0.01317251
v 0.03925027 0.04114282 0.01119834
v 0.04323108 0.03377497 0.006277561
v 0.04323108 0.02985466 0.005227149
v 0.03925027 0.02640712 0.01119834
v 0.03925027 0.03377497 0.01317251
v 0.04323108 0.02985466 0.005227149
v 0.04323108 0.02698481 0.002357244
v 0.03925027 0.02101362 0.005804718
v 0.03925027 0.02640712 0.01119834
v 0.04323108 0.02698481 0.002357244
v 0.04323108 0.02593434 -0.001563072
v 0.03925027 0.01903939 -0.001563072
v 0.03925027 0.02101362 0.005804718
v 0.04323108 0.02593434 -0.001563072
v 0.04323108 0.02698481 -0.005483389
v 0.03925027 0.02101362 -0.008930862
v 0.03925027 0.01903939 -0.001563072
v 0.04323108 0.02698481 -0.005483389
v 0.04323108 0.02985466 -0.008353293
v 0.03925027 0.02640712 -0.01432449
v 0.03925027 0.02101362 -0.008930862
v 0.04323108 0.02985466 -0.008353293
v 0.04323108 0.03377497 -0.009403706
v 0.03925027 0.03377497 -0.01629865
v 0.03925027 0.02640712 -0.01432449
v 0.03925027 0.03377497 -0.01629865
v 0.03925027 0.04114282 -0.01432449
v 0.03315133 0.04370153 -0.01875645
v 0.03315133 0.03377497 -0.02141631
v 0.03925027 0.04114282 -0.01432449
v 0.03925027 0.04653633 -0.008930862
v 0.03315133 0.05096841 -0.01148969
v 0.03315133 0.04370153 -0.01875645
v 0.03925027 0.04653633 -0.008930862
v 0.03925027 0.04851055 -0.001563072
v 0.03315133 0.05362821 -0.001563072
v 0.03315133 0.05096841 -0.01148969
v 0.03925027 0.04851055 -0.001563072
v 0.03925027 0.04653633 0.005804718
v 0.03315133 0.05096841 0.008363545
v 0.03315133 0.05362821 -0.001563072
v 0.03925027 0.04653633 0.005804718
v 0.03925027 0.04114282 0.01119834
v 0.03315133 0.04370153 0.0156303
v 0.03315133 0.05096841 0.008363545
v 0.03925027 0.04114282 0.01119834
v 0.03925027 0.03377497 0.01317251
v 0.03315133 0.03377497 0.01829016
v 0.03315133 0.04370153 0.0156303
v 0.03925027 0.03377497 0.01317251
v 0.03925027 0.02640712 0.01119834
v 0.03315133 0.02384841 0.0156303
v 0.03315133 0.03377497 0.01829016
v 0.03925027 0.02640712 0.01119834
v 0.03925027 0.02101362 0.005804718
v 0.03315133 0.01658154 0.008363545
v 0.03315133 0.02384841 0.0156303
v 0.03925027 0.02101362 0.005804718
v 0.03925027 0.01903939 -0.001563072
v 0.03315133 0.01392174 -0.001563072
v 0.03315133 0.01658154 0.008363545
v 0.03925027 0.01903939 -0.001563072
v 0.03925027 0.02101362 -0.008930862
v 0.03315133 0.01658154 -0.01148969
v 0.03315133 0.01392174 -0.001563072
v 0.03925027 0.02101362 -0.008930862
v 0.03925027 0.02640712 -0.01432449
v 0.03315133 0.02384841 -0.01875645
v 0.03315133 0.01658154 -0.01148969
v 0.03925027 0.02640712 -0.01432449
v 0.03925027 0.03377497 -0.01629865
v 0.03315133 0.03377497 -0.02141631
v 0.03315133 0.02384841 -0.01875645
v 0.03315133 0.03377497 -0.02141631
v 0.03315133 0.04370153 -0.01875645
v 0.02566987 0.04506314 -0.02111471
v 0.02566987 0.03377497 -0.02413934
v 0.03315133 0.04370153 -0.01875645
v 0.03315133 0.05096841 -0.01148969
v 0.02566987 0.05332661 -0.01285118
v 0.02566987 0.04506314 -0.02111471
v 0.03315133 0.05096841 -0.01148969
v 0.03315133 0.05362821 -0.001563072
v 0.02566987 0.05635118 -0.001563072
v 0.02566987 0.05332661 -0.01285118
v 0.03315133 0.05362821 -0.001563072
v 0.03315133 0.05096841 0.008363545
v 0.02566987 0.05332661 0.009725034
v 0.02566987 0.05635118 -0.001563072
v 0.03315133 0.05096841 0.008363545
v 0.03315133 0.04370153 0.0156303
v 0.02566987 0.04506314 0.01798856
v 0.02566987 0.05332661 0.009725034
v 0.03315133 0.04370153 0.0156303
v 0.03315133 0.03377497 0.01829016
v 0.02566987 0.03377497 0.0210132
v 0.02566987 0.04506314 0.01798856
v 0.03315133 0.03377497 0.01829016
v 0.03315133 0.02384841 0.0156303
v 0.02566987 0.02248681 0.01798856
v 0.02566987 0.03377497 0.0210132
v 0.03315133 0.02384841 0.0156303
v 0.03315133 0.01658154 0.008363545
v 0.02566987 0.01422334 0.009725034
v 0.02566987 0.02248681 0.01798856
v 0.03315133 0.01658154 0.008363545
v 0.03315133 0.01392174 -0.001563072
v 0.02566987 0.01119876 -0.001563072
v 0.02566987 0.01422334 0.009725034
v 0.03315133 0.01392174 -0.001563072
v 0.03315133 0.01658154 -0.01148969
v 0.02566987 0.01422334 -0.01285118
v 0.02566987 0.01119876 -0.001563072
v 0.03315133 0.01658154 -0.01148969
v 0.03315133 0.02384841 -0.01875645
v 0.02566987 0.02248681 -0.02111471
v 0.02566987 0.01422334 -0.01285118
v 0.03315133 0.02384841 -0.01875645
v 0.03315133 0.03377497 -0.02141631
v 0.02566987 0.03377497 -0.02413934
v 0.02566987 0.02248681 -0.02111471
v 0.02566987 0.03377497 -0.02413934
v 0.02566987 0.04506314 -0.02111471
v 0.01770827 0.04506314 -0.02111471
v 0.01770827 0.03377497 -0.02413934
v 0.02566987 0.04506314 -0.02111471
v 0.02566987 0.05332661 -0.01285118
v 0.01770827 0.05332661 -0.01285118
v 0.01770827 0.04506314 -0.02111471
v 0.02566987 0.05332661 -0.01285118
v 0.02566987 0.05635118 -0.001563072
v 0.01770827 0.05635118 -0.001563072
v 0.01770827 0.05332661 -0.01285118
v 0.02566987 0.05635118 -0.001563072
v 0.02566987 0.05332661 0.009725034
v 0.01770827 0.05332661 0.009725034
v 0.01770827 0.05635118 -0.001563072
v 0.02566987 0.05332661 0.009725034
v 0.02566987 0.04506314 0.01798856
v 0.01770827 0.04506314 0.01798856
v 0.01770827 0.05332661 0.009725034
v 0.02566987 0.04506314 0.01798856
v 0.02566987 0.03377497 0.0210132
v 0.01770827 0.03377497 0.0210132
v 0.01770827 0.04506314 0.01798856
v 0.02566987 0.03377497 0.0210132
v 0.02566987 0.02248681 0.01798856
v 0.01770827 0.02248681 0.01798856
v 0.01770827 0.03377497 0.0210132
v 0.02566987 0.02248681 0.01798856
v 0.02566987 0.01422334 0.009725034
v 0.01770827 0.01422334 0.009725034
v 0.01770827 0.02248681 0.01798856
v 0.02566987 0.01422334 0.009725034
v 0.02566987 0.01119876 -0.001563072
v 0.01770827 0.01119876 -0.001563072
v 0.01770827 0.01422334 0.009725034
v 0.02566987 0.01119876 -0.001563072
v 0.02566987 0.01422334 -0.01285118
v 0.01770827 0.01422334 -0.01285118
v 0.01770827 0.01119876 -0.001563072
v 0.02566987 0.01422334 -0.01285118
v 0.02566987 0.02248681 -0.02111471
v 0.01770827 0.02248681 -0.02111471
v 0.01770827 0.01422334 -0.01285118
v 0.02566987 0.02248681 -0.02111471
v 0.02566987 0.03377497 -0.02413934
v 0.01770827 0.03377497 -0.02413934
v 0.01770827 0.02248681 -0.02111471
v 0.01770827 0.03377497 -0.02413934
v 0.01770827 0.04506314 -0.02111471
v 0.0102268 0.04370153 -0.01875645
v 0.0102268 0.03377497 -0.02141631
v 0.01770827 0.04506314 -0.02111471
v 0.01770827 0.05332661 -0.01285118
v 0.0102268 0.05096841 -0.01148969
v 0.0102268 0.04370153 -0.01875645
v 0.01770827 0.05332661 -0.01285118
v 0.01770827 0.05635118 -0.001563072
v 0.0102268 0.05362821 -0.001563072
v 0.0102268 0.05096841 -0.01148969
v 0.01770827 0.05635118 -0.001563072
v 0.01770827 0.05332661 0.009725034
v 0.0102268 0.05096841 0.008363545
v 0.0102268 0.05362821 -0.001563072
v 0.01770827 0.05332661 0.009725034
v 0.01770827 0.04506314 0.01798856
v 0.0102268 0.04370153 0.0156303
v 0.0102268 0.05096841 0.008363545
v 0.01770827 0.04506314 0.01798856
v 0.01770827 0.03377497 0.0210132
v 0.0102268 0.03377497 0.01829016
v 0.0102268 0.04370153 0.0156303
v 0.01770827 0.03377497 0.0210132
v 0.01770827 0.02248681 0.01798856
v 0.0102268 0.02384841 0.0156303
v 0.0102268 0.03377497 0.01829016
v 0.01770827 0.02248681 0.01798856
v 0.01770827 0.01422334 0.009725034
v 0.0102268 0.01658154 0.008363545
v 0.0102268 0.02384841 0.0156303
v 0.01770827 0.01422334 0.009725034
v 0.01770827 0.01119876 -0.001563072
v 0.0102268 0.01392174 -0.001563072
v 0.0102268 0.01658154 0.008363545
v 0.01770827 0.01119876 -0.001563072
v 0.01770827 0.01422334 -0.01285118
v 0.0102268 0.01658154 -0.01148969
v 0.0102268 0.01392174 -0.001563072
v 0.01770827 0.01422334 -0.01285118
v 0.01770827 0.02248681 -0.02111471
v 0.0102268 0.02384841 -0.01875645
v 0.0102268 0.01658154 -0.01148969
v 0.01770827 0.02248681 -0.02111471
v 0.01770827 0.03377497 -0.02413934
v 0.0102268 0.03377497 -0.02141631
v 0.0102268 0.02384841 -0.01875645
v 0.0102268 0.03377497 -0.02141631
v 0.0102268 0.04370153 -0.01875645
v 0.004127875 0.04114282 -0.01432449
v 0.004127875 0.03377497 -0.01629865
v 0.0102268 0.04370153 -0.01875645
v 0.0102268 0.05096841 -0.01148969
v 0.004127875 0.04653633 -0.008930862
v 0.004127875 0.04114282 -0.01432449
v 0.0102268 0.05096841 -0.01148969
v 0.0102268 0.05362821 -0.001563072
v 0.004127875 0.04851055 -0.001563072
v 0.004127875 0.04653633 -0.008930862
v 0.0102268 0.05362821 -0.001563072
v 0.0102268 0.05096841 0.008363545
v 0.004127875 0.04653633 0.005804718
v 0.004127875 0.04851055 -0.001563072
v 0.0102268 0.05096841 0.008363545
v 0.0102268 0.04370153 0.0156303
v 0.004127875 0.04114282 0.01119834
v 0.004127875 0.04653633 0.005804718
v 0.0102268 0.04370153 0.0156303
v 0.0102268 0.03377497 0.01829016
v 0.004127875 0.03377497 0.01317251
v 0.004127875 0.04114282 0.01119834
v 0.0102268 0.03377497 0.01829016
v 0.0102268 0.02384841 0.0156303
v 0.004127875 0.02640712 0.01119834
v 0.004127875 0.03377497 0.01317251
v 0.0102268 0.02384841 0.0156303
v 0.0102268 0.01658154 0.008363545
v 0.004127875 0.02101362 0.005804718
v 0.004127875 0.02640712 0.01119834
v 0.0102268 0.01658154 0.008363545
v 0.0102268 0.01392174 -0.001563072
v 0.004127875 0.01903939 -0.001563072
v 0.004127875 0.02101362 0.005804718
v 0.0102268 0.01392174 -0.001563072
v 0.0102268 0.01658154 -0.01148969
v 0.004127875 0.02101362 -0.008930862
v 0.004127875 0.01903939 -0.001563072
v 0.0102268 0.01658154 -0.01148969
v 0.0102268 0.02384841 -0.01875645
v 0.004127875 0.02640712 -0.01432449
v 0.004127875 0.02101362 -0.008930862
v 0.0102268 0.02384841 -0.01875645
v 0.0102268 0.03377497 -0.02141631
v 0.004127875 0.03377497 -0.01629865
v 0.004127875 0.02640712 -0.01432449
v 0.004127875 0.03377497 -0.01629865
v 0.004127875 0.04114282 -0.01432449
v 0.0001470596 0.03769529 -0.008353293
v 0.0001470596 0.03377497 -0.009403706
v 0.004127875 0.04114282 -0.01432449
v 0.004127875 0.04653633 -0.008930862
v 0.0001470596 0.04056513 -0.005483389
v 0.0001470596 0.03769529 -0.008353293
v 0.004127875 0.04653633 -0.008930862
v 0.004127875 0.04851055 -0.001563072
v 0.0001470596 0.04161561 -0.001563072
v 0.0001470596 0.04056513 -0.005483389
v 0.004127875 0.04851055 -0.001563072
v 0.004127875 0.04653633 0.005804718
v 0.0001470596 0.04056513 0.002357244
v 0.0001470596 0.04161561 -0.001563072
v 0.004127875 0.04653633 0.005804718
v 0.004127875 0.04114282 0.01119834
v 0.0001470596 0.03769529 0.005227149
v 0.0001470596 0.04056513 0.002357244
v 0.004127875 0.04114282 0.01119834
v 0.004127875 0.03377497 0.01317251
v 0.0001470596 0.03377497 0.006277561
v 0.0001470596 0.03769529 0.005227149
v 0.004127875 0.03377497 0.01317251
v 0.004127875 0.02640712 0.01119834
v 0.0001470596 0.02985466 0.005227149
v 0.0001470596 0.03377497 0.006277561
v 0.004127875 0.02640712 0.01119834
v 0.004127875 0.02101362 0.005804718
v 0.0001470596 0.02698481 0.002357244
v 0.0001470596 0.02985466 0.005227149
v 0.004127875 0.02101362 0.005804718
v 0.004127875 0.01903939 -0.001563072
v 0.0001470596 0.02593434 -0.001563072
v 0.0001470596 0.02698481 0.002357244
v 0.004127875 0.01903939 -0.001563072
v 0.004127875 0.02101362 -0.008930862
v 0.0001470596 0.02698481 -0.005483389
v 0.0001470596 0.02593434 -0.001563072
v 0.004127875 0.02101362 -0.008930862
v 0.004127875 0.02640712 -0.01432449
v 0.0001470596 0.02985466 -0.008353293
v 0.0001470596 0.02698481 -0.005483389
v 0.004127875 0.02640712 -0.01432449
v 0.004127875 0.03377497 -0.01629865
v 0.0001470596 0.03377497 -0.009403706
v 0.0001470596 0.02985466 -0.008353293
v 0.0001470596 0.03377497 -0.009403706
v 0.0001470596 0.03769529 -0.008353293
v -0.001235455 0.03377497 -0.001563072
v 0.0001470596 0.03769529 -0.008353293
v 0.0001470596 0.04056513 -0.005483389
v -0.001235455 0.03377497 -0.001563072
v 0.0001470596 0.04056513 -0.005483389
v 0.0001470596 0.04161561 -0.001563072
v -0.001235455 0.03377497 -0.001563072
v 0.0001470596 0.04161561 -0.001563072
v 0.0001470596 0.04056513 0.002357244
v -0.001235455 0.03377497 -0.001563072
v 0.0001470596 0.04056513 0.002357244
v 0.0001470596 0.03769529 0.005227149
v -0.001235455 0.03377497 -0.001563072
v 0.0001470596 0.03769529 0.005227149
v 0.0001470596 0.03377497 0.006277561
v -0.001235455 0.03377497 -0.001563072
v 0.0001470596 0.03377497 0.006277561
v 0.0001470596 0.02985466 0.005227149
v -0.001235455 0.03377497 -0.001563072
v 0.0001470596 0.02985466 0.005227149
v 0.0001470596 0.02698481 0.002357244
v -0.001235455 0.03377497 -0.001563072
v 0.0001470596 0.02698481 0.002357244
v 0.0001470596 0.02593434 -0.001563072
v -0.001235455 0.03377497 -0.001563072
v 0.0001470596 0.02593434 -0.001563072
v 0.0001470596 0.02698481 -0.005483389
v -0.001235455 0.03377497 -0.001563072
v 0.0001470596 0.02698481 -0.005483389
v 0.0001470596 0.02985466 -0.008353293
v -0.001235455 0.03377497 -0.001563072
v 0.0001470596 0.02985466 -0.008353293
v 0.0001470596 0.03377497 -0.009403706
v -0.001235455 0.03377497 -0.001563072
v 0.04086037 0.07962465 -0.05282837
v 0.03947785 0.08354497 -0.05961859
v 0.03947785 0.07962465 -0.060669
v 0.04086037 0.07962465 -0.05282837
v 0.03947785 0.08641481 -0.05674869
v 0.03947785 0.08354497 -0.05961859
v 0.04086037 0.07962465 -0.05282837
v 0.03947785 0.08746529 -0.05282837
v 0.03947785 0.08641481 -0.05674869
v 0.04086037 0.07962465 -0.05282837
v 0.03947785 0.08641481 -0.04890805
v 0.03947785 0.08746529 -0.05282837
v 0.04086037 0.07962465 -0.05282837
v 0.03947785 0.08354497 -0.04603815
v 0.03947785 0.08641481 -0.04890805
v 0.04086037 0.07962465 -0.05282837
v 0.03947785 0.07962465 -0.04498774
v 0.03947785 0.08354497 -0.04603815
v 0.04086037 0.07962465 -0.05282837
v 0.03947785 0.07570434 -0.04603815
v 0.03947785 0.07962465 -0.04498774
v 0.04086037 0.07962465 -0.05282837
v 0.03947785 0.07283449 -0.04890805
v 0.03947785 0.07570434 -0.04603815
v 0.04086037 0.07962465 -0.05282837
v 0.03947785 0.07178402 -0.05282837
v 0.03947785 0.07283449 -0.04890805
v 0.04086037 0.07962465 -0.05282837
v 0.03947785 0.07283449 -0.05674869
v 0.03947785 0.07178402 -0.05282837
v 0.04086037 0.07962465 -0.05282837
v 0.03947785 0.07570434 -0.05961859
v 0.03947785 0.07283449 -0.05674869
v 0.04086037 0.07962465 -0.05282837
v 0.03947785 0.07962465 -0.060669
v 0.03947785 0.07570434 -0.05961859
v 0.03947785 0.07962465 -0.060669
v 0.03947785 0.08354497 -0.05961859
v 0.03549704 0.0869925 -0.06558979
v 0.03549704 0.07962465 -0.06756395
v 0.03947785 0.08354497 -0.05961859
v 0.03947785 0.08641481 -0.05674869
v 0.03549704 0.09238601 -0.06019616
v 0.03549704 0.0869925 -0.06558979
v 0.03947785 0.08641481 -0.05674869
v 0.03947785 0.08746529 -0.05282837
v 0.03549704 0.09436023 -0.05282837
v 0.03549704 0.09238601 -0.06019616
v 0.03947785 0.08746529 -0.05282837
v 0.03947785 0.08641481 -0.04890805
v 0.03549704 0.09238601 -0.04546058
v 0.03549704 0.09436023 -0.05282837
v 0.03947785 0.08641481 -0.04890805
v 0.03947785 0.08354497 -0.04603815
v 0.03549704 0.0869925 -0.04006696
v 0.03549704 0.09238601 -0.04546058
v 0.03947785 0.08354497 -0.04603815
v 0.03947785 0.07962465 -0.04498774
v 0.03549704 0.07962465 -0.03809279
v 0.03549704 0.0869925 -0.04006696
v 0.03947785 0.07962465 -0.04498774
v 0.03947785 0.07570434 -0.04603815
v 0.03549704 0.0722568 -0.04006696
v 0.03549704 0.07962465 -0.03809279
v 0.03947785 0.07570434 -0.04603815
v 0.03947785 0.07283449 -0.04890805
v 0.03549704 0.0668633 -0.04546058
v 0.03549704 0.0722568 -0.04006696
v 0.03947785 0.07283449 -0.04890805
v 0.03947785 0.07178402 -0.05282837
v 0.03549704 0.06488907 -0.05282837
v 0.03549704 0.0668633 -0.04546058
v 0.03947785 0.07178402 -0.05282837
v 0.03947785 0.07283449 -0.05674869
v 0.03549704 0.0668633 -0.06019616
v 0.03549704 0.06488907 -0.05282837
v 0.03947785 0.07283449 -0.05674869
v 0.03947785 0.07570434 -0.05961859
v 0.03549704 0.0722568 -0.06558979
v 0.03549704 0.0668633 -0.06019616
v 0.03947785 0.07570434 -0.05961859
v 0.03947785 0.07962465 -0.060669
v 0.03549704 0.07962465 -0.06756395
v 0.03549704 0.0722568 -0.06558979
v 0.03549704 0.07962465 -0.06756395
v 0.03549704 0.0869925 -0.06558979
v 0.0293981 0.08955121 -0.07002175
v 0.0293981 0.07962465 -0.07268161
v 0.03549704 0.0869925 -0.06558979
v 0.03549704 0.09238601 -0.06019616
v 0.0293981 0.09681809 -0.06275499
v 0.0293981 0.08955121 -0.07002175
v 0.03549704 0.09238601 -0.06019616
v 0.03549704 0.09436023 -0.05282837
v 0.0293981 0.09947789 -0.05282837
v 0.0293981 0.09681809 -0.06275499
v 0.03549704 0.09436023 -0.05282837
v 0.03549704 0.09238601 -0.04546058
v 0.0293981 0.09681809 -0.04290175
v 0.0293981 0.09947789 -0.05282837
v 0.03549704 0.09238601 -0.04546058
v 0.03549704 0.0869925 -0.04006696
v 0.0293981 0.08955121 -0.03563499
v 0.0293981 0.09681809 -0.04290175
v 0.03549704 0.0869925 -0.04006696
v 0.03549704 0.07962465 -0.03809279
v 0.0293981 0.07962465 -0.03297514
v 0.0293981 0.08955121 -0.03563499
v 0.03549704 0.07962465 -0.03809279
v 0.03549704 0.0722568 -0.04006696
v 0.0293981 0.0696981 -0.03563499
v 0.0293981 0.07962465 -0.03297514
v 0.03549704 0.0722568 -0.04006696
v 0.03549704 0.0668633 -0.04546058
v 0.0293981 0.06243122 -0.04290175
v 0.0293981 0.0696981 -0.03563499
v 0.03549704 0.0668633 -0.04546058
v 0.03549704 0.06488907 -0.05282837
v 0.0293981 0.05977142 -0.05282837
v 0.0293981 0.06243122 -0.04290175
v 0.03549704 0.06488907 -0.05282837
v 0.03549704 0.0668633 -0.06019616
v 0.0293981 0.06243122 -0.06275499
v 0.0293981 0.05977142 -0.05282837
v 0.03549704 0.0668633 -0.06019616
v 0.03549704 0.0722568 -0.06558979
v 0.0293981 0.0696981 -0.07002175
v 0.0293981 0.06243122 -0.06275499
v 0.03549704 0.0722568 -0.06558979
v 0.03549704 0.07962465 -0.06756395
v 0.0293981 0.07962465 -0.07268161
v 0.0293981 0.0696981 -0.07002175
v 0.0293981 0.07962465 -0.07268161
v 0.0293981 0.08955121 -0.07002175
v 0.02191664 0.09091282 -0.07238001
v 0.02191664 0.07962465 -0.07540464
v 0.0293981 0.08955121 -0.07002175
v 0.0293981 0.09681809 -0.06275499
v 0.02191664 0.09917629 -0.06411648
v 0.02191664 0.09091282 -0.07238001
v 0.0293981 0.09681809 -0.06275499
v 0.0293981 0.09947789 -0.05282837
v 0.02191664 0.1022009 -0.05282837
v 0.02191664 0.09917629 -0.06411648
v 0.0293981 0.09947789 -0.05282837
v 0.0293981 0.09681809 -0.04290175
v 0.02191664 0.09917629 -0.04154027
v 0.02191664 0.1022009 -0.05282837
v 0.0293981 0.09681809 -0.04290175
v 0.0293981 0.08955121 -0.03563499
v 0.02191664 0.09091282 -0.03327674
v 0.02191664 0.09917629 -0.04154027
v 0.0293981 0.08955121 -0.03563499
v 0.0293981 0.07962465 -0.03297514
v 0.02191664 0.07962465 -0.0302521
v 0.02191664 0.09091282 -0.03327674
v 0.0293981 0.07962465 -0.03297514
v 0.0293981 0.0696981 -0.03563499
v 0.02191664 0.06833649 -0.03327674
v 0.02191664 0.07962465 -0.0302521
v 0.0293981 0.0696981 -0.03563499
v 0.0293981 0.06243122 -0.04290175
v 0.02191664 0.06007302 -0.04154027
v 0.02191664 0.06833649 -0.03327674
v 0.0293981 0.06243122 -0.04290175
v 0.0293981 0.05977142 -0.05282837
v 0.02191664 0.05704844 -0.05282837
v 0.02191664 0.06007302 -0.04154027
v 0.0293981 0.05977142 -0.05282837
v 0.0293981 0.06243122 -0.06275499
v 0.02191664 0.06007302 -0.06411648
v 0.02191664 0.05704844 -0.05282837
v 0.0293981 0.06243122 -0.06275499
v 0.0293981 0.0696981 -0.07002175
v 0.02191664 0.06833649 -0.07238001
v 0.02191664 0.06007302 -0.06411648
v 0.0293981 0.0696981 -0.07002175
v 0.0293981 0.07962465 -0.07268161
v 0.02191664 0.07962465 -0.07540464
v 0.02191664 0.06833649 -0.07238001
v 0.02191664 0.07962465 -0.07540464
v 0.02191664 0.09091282 -0.07238001
v 0.01395504 0.09091282 -0.07238001
v 0.01395504 0.07962465 -0.07540464
v 0.02191664 0.09091282 -0.07238001
v 0.02191664 0.09917629 -0.06411648
v 0.01395504 0.09917629 -0.06411648
v 0.01395504 0.09091282 -0.07238001
v 0.02191664 0.09917629 -0.06411648
v 0.02191664 0.1022009 -0.05282837
v 0.01395504 0.1022009 -0.05282837
v 0.01395504 0.09917629 -0.06411648
v 0.02191664 0.1022009 -0.05282837
v 0.02191664 0.09917629 -0.04154027
v 0.01395504 0.09917629 -0.04154027
v 0.01395504 0.1022009 -0.05282837
v 0.02191664 0.09917629 -0.04154027
v 0.02191664 0.09091282 -0.03327674
v 0.01395504 0.09091282 -0.03327674
v 0.01395504 0.09917629 -0.04154027
v 0.02191664 0.09091282 -0.03327674
v 0.02191664 0.07962465 -0.0302521
v 0.01395504 0.07962465 -0.0302521
v 0.01395504 0.09091282 -0.03327674
v 0.02191664 0.07962465 -0.0302521
v 0.02191664 0.06833649 -0.03327674
v 0.01395504 0.06833649 -0.03327674
v 0.01395504 0.07962465 -0.0302521
v 0.02191664 0.06833649 -0.03327674
v 0.02191664 0.06007302 -0.04154027
v 0.01395504 0.06007302 -0.04154027
v 0.01395504 0.06833649 -0.03327674
v 0.02191664 0.06007302 -0.04154027
v 0.02191664 0.05704844 -0.05282837
v 0.01395504 0.05704844 -0.05282837
v 0.01395504 0.06007302 -0.04154027
v 0.02191664 0.05704844 -0.05282837
v 0.02191664 0.06007302 -0.06411648
v 0.01395504 0.06007302 -0.06411648
v 0.01395504 0.05704844 -0.05282837
v 0.02191664 0.06007302 -0.06411648
v 0.02191664 0.06833649 -0.07238001
v 0.01395504 0.06833649 -0.07238001
v 0.01395504 0.06007302 -0.06411648
v 0.02191664 0.06833649 -0.07238001
v 0.02191664 0.07962465 -0.07540464
v 0.01395504 0.07962465 -0.07540464
v 0.01395504 0.06833649 -0.07238001
v 0.01395504 0.07962465 -0.07540464
v 0.01395504 0.09091282 -0.07238001
v 0.006473571 0.08955121 -0.07002175
v 0.006473571 0.07962465 -0.07268161
v 0.01395504 0.09091282 -0.07238001
v 0.01395504 0.09917629 -0.06411648
v 0.006473571 0.09681809 -0.06275499
v 0.006473571 0.08955121 -0.07002175
v 0.01395504 0.09917629 -0.06411648
v 0.01395504 0.1022009 -0.05282837
v 0.006473571 0.09947789 -0.05282837
v 0.006473571 0.09681809 -0.06275499
v 0.01395504 0.1022009 -0.05282837
v 0.01395504 0.09917629 -0.04154027
v 0.006473571 0.09681809 -0.04290175
v 0.006473571 0.09947789 -0.05282837
v 0.01395504 0.09917629 -0.04154027
v 0.01395504 0.09091282 -0.03327674
v 0.006473571 0.08955121 -0.03563499
v 0.006473571 0.09681809 -0.04290175
v 0.01395504 0.09091282 -0.03327674
v 0.01395504 0.07962465 -0.0302521
v 0.006473571 0.07962465 -0.03297514
v 0.006473571 0.08955121 -0.03563499
v 0.01395504 0.07962465 -0.0302521
v 0.01395504 0.06833649 -0.03327674
v 0.006473571 0.0696981 -0.03563499
v 0.006473571 0.07962465 -0.03297514
v 0.01395504 0.06833649 -0.03327674
v 0.01395504 0.06007302 -0.04154027
v 0.006473571 0.06243122 -0.04290175
v 0.006473571 0.0696981 -0.03563499
v 0.01395504 0.06007302 -0.04154027
v 0.01395504 0.05704844 -0.05282837
v 0.006473571 0.05977142 -0.05282837
v 0.006473571 0.06243122 -0.04290175
v 0.01395504 0.05704844 -0.05282837
v 0.01395504 0.06007302 -0.06411648
v 0.006473571 0.06243122 -0.06275499
v 0.006473571 0.05977142 -0.05282837
v 0.01395504 0.06007302 -0.06411648
v 0.01395504 0.06833649 -0.07238001
v 0.006473571 0.0696981 -0.07002175
v 0.006473571 0.06243122 -0.06275499
v 0.01395504 0.06833649 -0.07238001
v 0.01395504 0.07962465 -0.07540464
v 0.006473571 0.07962465 -0.07268161
v 0.006473571 0.0696981 -0.07002175
v 0.006473571 0.07962465 -0.07268161
v 0.006473571 0.08955121 -0.07002175
v 0.000374645 0.0869925 -0.06558979
v 0.000374645 0.07962465 -0.06756395
v 0.006473571 0.08955121 -0.07002175
v 0.006473571 0.09681809 -0.06275499
v 0.000374645 0.09238601 -0.06019616
v 0.000374645 0.0869925 -0.06558979
v 0.006473571 0.09681809 -0.06275499
v 0.006473571 0.09947789 -0.05282837
v 0.000374645 0.09436023 -0.05282837
v 0.000374645 0.09238601 -0.06019616
v 0.006473571 0.09947789 -0.05282837
v 0.006473571 0.09681809 -0.04290175
v 0.000374645 0.09238601 -0.04546058
v 0.000374645 0.09436023 -0.05282837
v 0.006473571 0.09681809 -0.04290175
v 0.006473571 0.08955121 -0.03563499
v 0.000374645 0.0869925 -0.04006696
v 0.000374645 0.09238601 -0.04546058
v 0.006473571 0.08955121 -0.03563499
v 0.006473571 0.07962465 -0.03297514
v 0.000374645 0.07962465 -0.03809279
v 0.000374645 0.0869925 -0.04006696
v 0.006473571 0.07962465 -0.03297514
v 0.006473571 0.0696981 -0.03563499
v 0.000374645 0.0722568 -0.04006696
v 0.000374645 0.07962465 -0.03809279
v 0.006473571 0.0696981 -0.03563499
v 0.006473571 0.06243122 -0.04290175
v 0.000374645 0.0668633 -0.04546058
v 0.000374645 0.0722568 -0.04006696
v 0.006473571 0.06243122 -0.04290175
v 0.006473571 0.05977142 -0.05282837
v 0.000374645 0.06488907 -0.05282837
v 0.000374645 0.0668633 -0.04546058
v 0.006473571 0.05977142 -0.05282837
v 0.006473571 0.06243122 -0.06275499
v 0.000374645 0.0668633 -0.06019616
v 0.000374645 0.06488907 -0.05282837
v 0.006473571 0.06243122 -0.06275499
v 0.006473571 0.0696981 -0.07002175
v 0.000374645 0.0722568 -0.06558979
v 0.000374645 0.0668633 -0.06019616
v 0.006473571 0.0696981 -0.07002175
v 0.006473571 0.07962465 -0.07268161
v 0.000374645 0.07962465 -0.06756395
v 0.000374645 0.0722568 -0.06558979
v 0.000374645 0.07962465 -0.06756395
v 0.000374645 0.0869925 -0.06558979
v -0.00360617 0.08354497 -0.05961859
v -0.00360617 0.07962465 -0.060669
v 0.000374645 0.0869925 -0.06558979
v 0.000374645 0.09238601 -0.06019616
v -0.00360617 0.08641481 -0.05674869
v -0.00360617 0.08354497 -0.05961859
v 0.000374645 0.09238601 -0.06019616
v 0.000374645 0.09436023 -0.05282837
v -0.00360617 0.08746529 -0.05282837
v -0.00360617 0.08641481 -0.05674869
v 0.000374645 0.09436023 -0.05282837
v 0.000374645 0.09238601 -0.04546058
v -0.00360617 0.08641481 -0.04890805
v -0.00360617 0.08746529 -0.05282837
v 0.000374645 0.09238601 -0.04546058
v 0.000374645 0.0869925 -0.04006696
v -0.00360617 0.08354497 -0.04603815
v -0.00360617 0.08641481 -0.04890805
v 0.000374645 0.0869925 -0.04006696
v 0.000374645 0.07962465 -0.03809279
v -0.00360617 0.07962465 -0.04498774
v -0.00360617 0.08354497 -0.04603815
v 0.000374645 0.07962465 -0.03809279
v 0.000374645 0.0722568 -0.04006696
v -0.00360617 0.07570434 -0.04603815
v -0.00360617 0.07962465 -0.04498774
v 0.000374645 0.0722568 -0.04006696
v 0.000374645 0.0668633 -0.04546058
v -0.00360617 0.07283449 -0.04890805
v -0.00360617 0.07570434 -0.04603815
v 0.000374645 0.0668633 -0.04546058
v 0.000374645 0.06488907 -0.05282837
v -0.00360617 0.07178402 -0.05282837
v -0.00360617 0.07283449 -0.04890805
v 0.000374645 0.06488907 -0.05282837
v 0.000374645 0.0668633 -0.06019616
v -0.00360617 0.07283449 -0.05674869
v -0.00360617 0.07178402 -0.05282837
v 0.000374645 0.0668633 -0.06019616
v 0.000374645 0.0722568 -0.06558979
v -0.00360617 0.07570434 -0.05961859
v -0.00360617 0.07283449 -0.05674869
v 0.000374645 0.0722568 -0.06558979
v 0.000374645 0.07962465 -0.06756395
v -0.00360617 0.07962465 -0.060669
v -0.00360617 0.07570434 -0.05961859
v -0.00360617 0.07962465 -0.060669
v -0.00360617 0.08354497 -0.05961859
v -0.004988685 0.07962465 -0.05282837
v -0.00360617 0.08354497 -0.05961859
v -0.00360617 0.08641481 -0.05674869
v -0.004988685 0.07962465 -0.05282837
v -0.00360617 0.08641481 -0.05674869
v -0.00360617 0.08746529 -0.05282837
v -0.004988685 0.07962465 -0.05282837
v -0.00360617 0.08746529 -0.05282837
v -0.00360617 0.08641481 -0.04890805
v -0.004988685 0.07962465 -0.05282837
v -0.00360617 0.08641481 -0.04890805
v -0.00360617 0.08354497 -0.04603815
v -0.004988685 0.07962465 -0.05282837
v -0.00360617 0.08354497 -0.04603815
v -0.00360617 0.07962465 -0.04498774
v -0.004988685 0.07962465 -0.05282837
v -0.00360617 0.07962465 -0.04498774
v -0.00360617 0.07570434 -0.04603815
v -0.004988685 0.07962465 -0.05282837
v -0.00360617 0.07570434 -0.04603815
v -0.00360617 0.07283449 -0.04890805
v -0.004988685 0.07962465 -0.05282837
v -0.00360617 0.07283449 -0.04890805
v -0.00360617 0.07178402 -0.05282837
v -0.004988685 0.07962465 -0.05282837
v -0.00360617 0.07178402 -0.05282837
v -0.00360617 0.07283449 -0.05674869
v -0.004988685 0.07962465 -0.05282837
v -0.00360617 0.07283449 -0.05674869
v -0.00360617 0.07570434 -0.05961859
v -0.004988685 0.07962465 -0.05282837
v -0.00360617 0.07570434 -0.05961859
v -0.00360617 0.07962465 -0.060669
v -0.004988685 0.07962465 -0.05282837
usemtl mat15
f 4 3 2 1
f 8 7 6 5
f 12 11 10 9
f 16 15 14 13
f 20 19 18 17
f 24 23 22 21
usemtl mat20
f 27 26 25
f 32 31 30 29 28
f 38 37 36 35 34 33
f 46 45 44 43 42
f 51 50 49 48 47
f 58 57 56
f 75 74 73 72
f 78 77 76
f 87 86 85
f 94 93 92
f 97 96 95
f 113 112 111
f 127 126 125
f 135 134 133 132
f 139 138 137 136
f 145 144 143
f 156 155 154
f 170 169 168
f 177 176 175
usemtl mat4
f 41 40 39
f 55 54 53 52
f 61 60 59
f 64 63 62
f 68 67 66 65
f 71 70 69
f 81 80 79
f 84 83 82
f 91 90 89 88
f 100 99 98
f 103 102 101
f 107 106 105 104
f 110 109 108
f 117 116 115 114
f 120 119 118
f 124 123 122 121
f 131 130 129 128
f 142 141 140
f 150 149 148 147 146
f 153 152 151
f 159 158 157
f 163 162 161 160
f 167 166 165 164
f 174 173 172 171
f 180 179 178
f 280 279 278 277
f 284 283 282 281
f 288 287 286 285
f 292 291 290 289
f 296 295 294 293
f 300 299 298 297
f 304 303 302 301
f 308 307 306 305
f 312 311 310 309
f 316 315 314 313
f 320 319 318 317
f 324 323 322 321
f 328 327 326 325
f 331 330 329
f 335 334 333 332
f 338 337 336
f 342 341 340 339
f 345 344 343
f 348 347 346
f 351 350 349
f 354 353 352
f 357 356 355
f 360 359 358
f 363 362 361
f 366 365 364
f 369 368 367
f 372 371 370
f 375 374 373
f 378 377 376
f 381 380 379
f 384 383 382
f 387 386 385
f 390 389 388
f 394 393 392 391
f 398 397 396 395
f 402 401 400 399
f 406 405 404 403
f 410 409 408 407
f 414 413 412 411
f 418 417 416 415
f 422 421 420 419
f 426 425 424 423
f 430 429 428 427
f 434 433 432 431
f 438 437 436 435
f 442 441 440 439
f 446 445 444 443
f 450 449 448 447
f 454 453 452 451
f 458 457 456 455
f 462 461 460 459
f 466 465 464 463
f 470 469 468 467
f 474 473 472 471
f 478 477 476 475
f 482 481 480 479
f 486 485 484 483
f 490 489 488 487
f 494 493 492 491
f 498 497 496 495
f 502 501 500 499
f 506 505 504 503
f 510 509 508 507
f 514 513 512 511
f 518 517 516 515
f 522 521 520 519
f 526 525 524 523
f 530 529 528 527
f 534 533 532 531
f 538 537 536 535
f 542 541 540 539
f 546 545 544 543
f 550 549 548 547
f 554 553 552 551
f 558 557 556 555
f 562 561 560 559
f 566 565 564 563
f 570 569 568 567
f 574 573 572 571
f 578 577 576 575
f 582 581 580 579
f 586 585 584 583
f 590 589 588 587
f 594 593 592 591
f 598 597 596 595
f 602 601 600 599
f 606 605 604 603
f 610 609 608 607
f 614 613 612 611
f 618 617 616 615
f 622 621 620 619
f 626 625 624 623
f 630 629 628 627
f 634 633 632 631
f 638 637 636 635
f 642 641 640 639
f 646 645 644 643
f 650 649 648 647
f 654 653 652 651
f 658 657 656 655
f 662 661 660 659
f 666 665 664 663
f 670 669 668 667
f 674 673 672 671
f 678 677 676 675
f 682 681 680 679
f 686 685 684 683
f 690 689 688 687
f 694 693 692 691
f 698 697 696 695
f 702 701 700 699
f 706 705 704 703
f 710 709 708 707
f 714 713 712 711
f 718 717 716 715
f 722 721 720 719
f 726 725 724 723
f 729 728 727
f 732 731 730
f 735 734 733
f 738 737 736
f 741 740 739
f 744 743 742
f 747 746 745
f 750 749 748
f 753 752 751
f 756 755 754
f 759 758 757
f 762 761 760
f 765 764 763
f 768 767 766
f 771 770 769
f 774 773 772
f 777 776 775
f 780 779 778
f 783 782 781
f 786 785 784
f 789 788 787
f 792 791 790
f 795 794 793
f 798 797 796
f 802 801 800 799
f 806 805 804 803
f 810 809 808 807
f 814 813 812 811
f 818 817 816 815
f 822 821 820 819
f 826 825 824 823
f 830 829 828 827
f 834 833 832 831
f 838 837 836 835
f 842 841 840 839
f 846 845 844 843
f 850 849 848 847
f 854 853 852 851
f 858 857 856 855
f 862 861 860 859
f 866 865 864 863
f 870 869 868 867
f 874 873 872 871
f 878 877 876 875
f 882 881 880 879
f 886 885 884 883
f 890 889 888 887
f 894 893 892 891
f 898 897 896 895
f 902 901 900 899
f 906 905 904 903
f 910 909 908 907
f 914 913 912 911
f 918 917 916 915
f 922 921 920 919
f 926 925 924 923
f 930 929 928 927
f 934 933 932 931
f 938 937 936 935
f 942 941 940 939
f 946 945 944 943
f 950 949 948 947
f 954 953 952 951
f 958 957 956 955
f 962 961 960 959
f 966 965 964 963
f 970 969 968 967
f 974 973 972 971
f 978 977 976 975
f 982 981 980 979
f 986 985 984 983
f 990 989 988 987
f 994 993 992 991
f 998 997 996 995
f 1002 1001 1000 999
f 1006 1005 1004 1003
f 1010 1009 1008 1007
f 1014 1013 1012 1011
f 1018 1017 1016 1015
f 1022 1021 1020 1019
f 1026 1025 1024 1023
f 1030 1029 1028 1027
f 1034 1033 1032 1031
f 1038 1037 1036 1035
f 1042 1041 1040 1039
f 1046 1045 1044 1043
f 1050 1049 1048 1047
f 1054 1053 1052 1051
f 1058 1057 1056 1055
f 1062 1061 1060 1059
f 1066 1065 1064 1063
f 1070 1069 1068 1067
f 1074 1073 1072 1071
f 1078 1077 1076 1075
f 1082 1081 1080 1079
f 1086 1085 1084 1083
f 1090 1089 1088 1087
f 1094 1093 1092 1091
f 1098 1097 1096 1095
f 1102 1101 1100 1099
f 1106 1105 1104 1103
f 1110 1109 1108 1107
f 1114 1113 1112 1111
f 1118 1117 1116 1115
f 1122 1121 1120 1119
f 1126 1125 1124 1123
f 1130 1129 1128 1127
f 1134 1133 1132 1131
f 1137 1136 1135
f 1140 1139 1138
f 1143 1142 1141
f 1146 1145 1144
f 1149 1148 1147
f 1152 1151 1150
f 1155 1154 1153
f 1158 1157 1156
f 1161 1160 1159
f 1164 1163 1162
f 1167 1166 1165
f 1170 1169 1168
f 1173 1172 1171
f 1176 1175 1174
f 1179 1178 1177
f 1182 1181 1180
f 1185 1184 1183
f 1188 1187 1186
f 1191 1190 1189
f 1194 1193 1192
f 1197 1196 1195
f 1200 1199 1198
f 1203 1202 1201
f 1206 1205 1204
f 1210 1209 1208 1207
f 1214 1213 1212 1211
f 1218 1217 1216 1215
f 1222 1221 1220 1219
f 1226 1225 1224 1223
f 1230 1229 1228 1227
f 1234 1233 1232 1231
f 1238 1237 1236 1235
f 1242 1241 1240 1239
f 1246 1245 1244 1243
f 1250 1249 1248 1247
f 1254 1253 1252 1251
f 1258 1257 1256 1255
f 1262 1261 1260 1259
f 1266 1265 1264 1263
f 1270 1269 1268 1267
f 1274 1273 1272 1271
f 1278 1277 1276 1275
f 1282 1281 1280 1279
f 1286 1285 1284 1283
f 1290 1289 1288 1287
f 1294 1293 1292 1291
f 1298 1297 1296 1295
f 1302 1301 1300 1299
f 1306 1305 1304 1303
f 1310 1309 1308 1307
f 1314 1313 1312 1311
f 1318 1317 1316 1315
f 1322 1321 1320 1319
f 1326 1325 1324 1323
f 1330 1329 1328 1327
f 1334 1333 1332 1331
f 1338 1337 1336 1335
f 1342 1341 1340 1339
f 1346 1345 1344 1343
f 1350 1349 1348 1347
f 1354 1353 1352 1351
f 1358 1357 1356 1355
f 1362 1361 1360 1359
f 1366 1365 1364 1363
f 1370 1369 1368 1367
f 1374 1373 1372 1371
f 1378 1377 1376 1375
f 1382 1381 1380 1379
f 1386 1385 1384 1383
f 1390 1389 1388 1387
f 1394 1393 1392 1391
f 1398 1397 1396 1395
f 1402 1401 1400 1399
f 1406 1405 1404 1403
f 1410 1409 1408 1407
f 1414 1413 1412 1411
f 1418 1417 1416 1415
f 1422 1421 1420 1419
f 1426 1425 1424 1423
f 1430 1429 1428 1427
f 1434 1433 1432 1431
f 1438 1437 1436 1435
f 1442 1441 1440 1439
f 1446 1445 1444 1443
f 1450 1449 1448 1447
f 1454 1453 1452 1451
f 1458 1457 1456 1455
f 1462 1461 1460 1459
f 1466 1465 1464 1463
f 1470 1469 1468 1467
f 1474 1473 1472 1471
f 1478 1477 1476 1475
f 1482 1481 1480 1479
f 1486 1485 1484 1483
f 1490 1489 1488 1487
f 1494 1493 1492 1491
f 1498 1497 1496 1495
f 1502 1501 1500 1499
f 1506 1505 1504 1503
f 1510 1509 1508 1507
f 1514 1513 1512 1511
f 1518 1517 1516 1515
f 1522 1521 1520 1519
f 1526 1525 1524 1523
f 1530 1529 1528 1527
f 1534 1533 1532 1531
f 1538 1537 1536 1535
f 1542 1541 1540 1539
f 1545 1544 1543
f 1548 1547 1546
f 1551 1550 1549
f 1554 1553 1552
f 1557 1556 1555
f 1560 1559 1558
f 1563 1562 1561
f 1566 1565 1564
f 1569 1568 1567
f 1572 1571 1570
f 1575 1574 1573
f 1578 1577 1576
usemtl mat13
f 184 183 182 181
f 188 187 186 185
f 192 191 190 189
f 196 195 194 193
f 200 199 198 197
f 204 203 202 201
f 208 207 206 205
f 212 211 210 209
f 216 215 214 213
f 220 219 218 217
f 224 223 222 221
f 228 227 226 225
f 232 231 230 229
f 236 235 234 233
f 240 239 238 237
f 244 243 242 241
f 248 247 246 245
f 252 251 250 249
f 256 255 254 253
f 260 259 258 257
f 264 263 262 261
f 268 267 266 265
f 272 271 270 269
f 276 275 274 273
